<?xml version="1.0" encoding="UTF-8" standalone="no"?>
<!-- Created with Inkscape (http://www.inkscape.org/) -->

<svg
   width="270.93332mm"
   height="270.93332mm"
   viewBox="0 0 270.93332 270.93332"
   version="1.1"
   id="svg1"
   xml:space="preserve"
   sodipodi:docname="logo.svg"
   inkscape:version="1.3.2 (091e20e, 2023-11-25, custom)"
   inkscape:export-filename="logo.png"
   inkscape:export-xdpi="96.000008"
   inkscape:export-ydpi="96.000008"
   xmlns:inkscape="http://www.inkscape.org/namespaces/inkscape"
   xmlns:sodipodi="http://sodipodi.sourceforge.net/DTD/sodipodi-0.dtd"
   xmlns="http://www.w3.org/2000/svg"
   xmlns:svg="http://www.w3.org/2000/svg"><sodipodi:namedview
     id="namedview1"
     pagecolor="#ffffff"
     bordercolor="#111111"
     borderopacity="1"
     inkscape:showpageshadow="0"
     inkscape:pageopacity="0"
     inkscape:pagecheckerboard="1"
     inkscape:deskcolor="#d1d1d1"
     inkscape:document-units="mm"
     inkscape:zoom="0.3514415"
     inkscape:cx="772.53256"
     inkscape:cy="687.16984"
     inkscape:window-width="1920"
     inkscape:window-height="1009"
     inkscape:window-x="-8"
     inkscape:window-y="-8"
     inkscape:window-maximized="1"
     inkscape:current-layer="layer1"
     showguides="true"><sodipodi:guide
       position="85.825096,115.84587"
       orientation="1,0"
       id="guide9"
       inkscape:locked="false" /></sodipodi:namedview><defs
     id="defs1" /><g
     inkscape:label="Layer 1"
     inkscape:groupmode="layer"
     id="layer1"
     transform="translate(28.947702,-41.883531)"><path
       id="path9"
       style="fill:#ff3310;fill-opacity:1;stroke-width:0.959451"
       d="M 98.86943,296.62639 C 79.496479,295.2404 61.425416,289.59737 45.460228,279.94838 19.809295,264.44553 0.4835646,239.67531 -7.9331214,211.51295 -12.986118,194.60554 -14.164,176.94142 -11.466846,158.51941 -9.0805245,142.22043 -3.2256121,126.79175 5.8265962,112.94827 25.737164,82.499176 56.669188,63.050083 91.908516,58.822646 c 10.778134,-1.292981 23.895784,-1.028696 33.918644,0.68337 24.89979,4.253292 46.3186,15.128789 64.13743,32.566095 10.2991,10.078569 17.91717,20.550549 24.16928,33.223649 11.74885,23.81509 14.91109,50.81585 9.12382,77.90374 -3.72153,17.41891 -11.89419,34.39802 -23.52923,48.88311 -6.42765,8.00212 -14.52184,15.7827 -22.55188,21.6781 -17.35832,12.7439 -37.49514,20.38641 -59.57597,22.61078 -3.7103,0.37376 -14.93467,0.52651 -18.73118,0.2549 z m 18.14033,15.82483 c 22.4825,-1.80081 42.5605,-8.36917 61.03601,-19.96741 27.39206,-17.19575 47.58363,-43.01674 57.49758,-73.52794 3.27578,-10.08152 5.1157,-19.19702 6.09657,-30.20404 0.45888,-5.14949 0.4616,-19.70637 0.004,-24.02593 -1.86474,-17.62456 -5.90626,-31.90128 -13.29143,-46.95353 C 221.55455,103.91675 213.56696,92.696896 202.83941,81.934987 192.12922,71.190492 180.63928,62.828033 167.46359,56.188188 151.42893,48.107581 135.81917,43.734874 117.64549,42.23281 110.37856,41.632193 97.405731,41.829775 90.618098,42.644448 63.677483,45.877944 39.308144,56.450468 19.091058,73.676125 -9.1161835,97.709664 -25.878035,130.37902 -28.673917,166.77151 c -0.413214,5.37859 -0.348294,16.97915 0.124544,22.25491 2.031818,22.67028 8.983218,42.87921 21.2984308,61.91827 4.8620709,7.51666 10.7211482,14.68805 17.8513122,21.84967 9.612098,9.6545 18.91347,16.73566 30.467507,23.19499 16.590263,9.27487 35.471264,14.97708 54.873798,16.5723 4.659885,0.38313 15.623735,0.32565 21.068085,-0.11043 z" /><g
       id="g8"
       transform="matrix(0.67188176,1.0488761,-1.0422716,0.67466777,217.54163,-47.421796)"
       style="fill:#ff3310;fill-opacity:1"><path
         style="fill:#ff3310;fill-opacity:1"
         d="m 187.73621,172.15946 -73.61353,-47.36097 0.17119,2.24896 c 0.0942,1.23693 0.4026,4.21349 0.68542,6.61458 0.28281,2.40109 0.76072,6.68734 1.06202,9.525 0.72258,6.80541 2.10929,19.36133 2.1834,19.76942 2.74744,3.18095 19.34208,9.09542 19.34208,9.09542 0,0 -19.16069,7.52806 -19.41581,9.60752 0,0.41996 -0.35443,3.93103 -0.78762,7.80237 -0.77006,6.88189 -2.75747,25.31726 -3.06921,28.47006 l -0.15697,1.5875 z"
         id="path8"
         sodipodi:nodetypes="cccsscccsscc" /><path
         style="fill:#ff3310;fill-opacity:1"
         d="m 18.872668,172.15946 73.613488,-47.36097 -0.17119,2.24896 c -0.0942,1.23693 -0.4026,4.21349 -0.68542,6.61458 -0.28281,2.40109 -0.76072,6.68734 -1.06202,9.525 -0.72258,6.80541 -2.109287,19.36133 -2.183397,19.76942 -2.74744,3.18095 -19.342071,9.09542 -19.342071,9.09542 0,0 19.160681,7.52806 19.415801,9.60752 0,0.41996 0.35443,3.93103 0.78762,7.80237 0.770057,6.88189 2.757467,25.31726 3.069207,28.47006 l 0.15697,1.5875 z"
         id="path8-2"
         sodipodi:nodetypes="cccsscccsscc" /></g></g></svg>
